<svg width="1354" height="961" viewBox="0 0 1354 961" fill="none" xmlns="http://www.w3.org/2000/svg">
<path d="M1 129H1354V863C1354 890.614 1331.61 913 1304 913H51C23.3858 913 1 890.614 1 863V129Z" fill="#FF859B"/>
<path d="M1 64C1 46.3269 15.3269 32 33 32H175C192.673 32 207 46.3269 207 64V64H1V64Z" fill="#FF859B"/>
<path d="M1 64H1289C1324.9 64 1354 93.1015 1354 129V129H1V64Z" fill="#FF859B"/>
<path d="M0 961C0 939.461 17.4609 922 39 922H1313C1334.54 922 1352 939.461 1352 961V961H0V961Z" fill="#D9D9D9"/>
</svg>
